<?xml version="1.0" encoding="utf-8"?>
<!-- Generator: Adobe Illustrator 16.0.0, SVG Export Plug-In . SVG Version: 6.00 Build 0)  -->
<!DOCTYPE svg PUBLIC "-//W3C//DTD SVG 1.1//EN" "http://www.w3.org/Graphics/SVG/1.1/DTD/svg11.dtd">
<svg version="1.1" id="レイヤー_1" xmlns="http://www.w3.org/2000/svg" xmlns:xlink="http://www.w3.org/1999/xlink" x="0px"
	 y="0px" width="296.792px" height="68.314px" viewBox="0 0 296.792 68.314" enable-background="new 0 0 296.792 68.314"
	 xml:space="preserve">
<g id="_xFF11_">
	<path fill="#FFFFFF" d="M20.165,0.89h10.093l20.109,52.284H40.024l-4.089-10.77H14.599l-4.254,10.77H0L20.165,0.89z M25.273,14.749
		l-7.014,17.953h13.987L25.273,14.749z"/>
	<path fill="#FFFFFF" d="M55.096,14.503H64.8v3.961c2.199-1.854,4.193-3.143,5.98-3.872c1.785-0.724,3.615-1.087,5.483-1.087
		c3.833,0,7.089,1.341,9.76,4.019c2.251,2.275,3.372,5.639,3.372,10.094v25.557h-9.596V36.242c0-4.619-0.207-7.683-0.62-9.2
		c-0.416-1.511-1.135-2.667-2.165-3.46c-1.028-0.793-2.298-1.188-3.81-1.188c-1.964,0-3.648,0.654-5.055,1.969
		c-1.407,1.314-2.381,3.133-2.926,5.45c-0.284,1.209-0.426,3.826-0.426,7.846v15.517h-9.705V14.503H55.096z"/>
	<path fill="#FFFFFF" d="M125.69,14.503h9.667V47.63c0,6.539-1.315,11.353-3.945,14.43c-3.532,4.171-8.849,6.255-15.958,6.255
		c-3.792,0-6.979-0.47-9.562-1.422c-2.582-0.948-4.765-2.34-6.542-4.174c-1.775-1.837-3.091-4.073-3.945-6.705h10.701
		c0.946,1.092,2.17,1.916,3.661,2.471c1.493,0.562,3.257,0.842,5.295,0.842c2.607,0,4.705-0.407,6.292-1.213
		c1.587-0.803,2.707-1.847,3.359-3.125c0.653-1.281,0.978-3.488,0.978-6.613c-1.707,1.705-3.496,2.931-5.368,3.683
		c-1.872,0.744-3.991,1.117-6.363,1.117c-5.188,0-9.571-1.871-13.152-5.617c-3.577-3.744-5.367-8.48-5.367-14.216
		c0-6.141,1.896-11.065,5.687-14.789c3.437-3.363,7.536-5.047,12.299-5.047c2.228,0,4.332,0.409,6.309,1.229
		c1.979,0.815,3.965,2.164,5.955,4.033L125.69,14.503L125.69,14.503z M115.63,22.57c-3.055,0-5.581,1.028-7.57,3.074
		c-1.991,2.049-2.987,4.632-2.987,7.733c0,3.223,1.02,5.862,3.06,7.924c2.036,2.065,4.595,3.094,7.676,3.094
		c3.009,0,5.491-1.01,7.446-3.022c1.954-2.015,2.932-4.659,2.932-7.925c0-3.22-0.985-5.839-2.949-7.854
		C121.271,23.577,118.736,22.57,115.63,22.57z"/>
	<path fill="#FFFFFF" d="M145.29,2.228h10.061v18.024l14.191-18.024h11.949l-18.259,23.337l20.039,28.947h-11.801L155.35,31.283
		v23.229h-10.06V2.228z"/>
	<path fill="#FFFFFF" d="M180.321,14.503h9.915l10.047,24.261l11.08-24.261h9.946l-24.22,52.817h-10.022l7.951-17.038
		L180.321,14.503z"/>
	<path fill="#FFFFFF" d="M225.904,14.503h9.812v18.626c0,3.622,0.246,6.139,0.746,7.551c0.5,1.41,1.303,2.506,2.406,3.284
		c1.104,0.785,2.463,1.175,4.078,1.175c1.616,0,2.989-0.387,4.117-1.15c1.128-0.771,1.966-1.902,2.512-3.398
		c0.403-1.114,0.606-3.493,0.606-7.143V14.503h9.7v16.387c0,6.754-0.53,11.373-1.598,13.86c-1.303,3.031-3.222,5.361-5.76,6.984
		c-2.535,1.622-5.758,2.436-9.666,2.436c-4.244,0-7.674-0.948-10.293-2.844c-2.615-1.896-4.459-4.54-5.525-7.926
		c-0.76-2.348-1.138-6.613-1.138-12.798L225.904,14.503L225.904,14.503z"/>
	<path fill="#FFFFFF" d="M271.662,0h9.705v14.731l9.77,0.072v8.239l-9.77,0.038c0,0-0.123,5.27,0.131,9.763
		c0.104,1.929,0.08,3.21,0.213,6.321c0.037,0.829,0.062,2.409,0.158,3.286c0.17,1.527,0.26,3.606,2.975,4.729
		c1.236,0.515,1.852,0.755,3.373,0.934c1.271,0.146,2.096-0.02,2.654-0.107c1.036-0.152,1.489-0.256,3.09-0.895
		c1.574-0.624,2.812-1.232,2.812-1.232l0.021,10.256c0,0-1.922,1.147-3.291,1.56c-1.604,0.484-1.674,0.455-2.908,0.592
		c-1.938,0.217-1.838,0.176-3.553,0.109c-1.006-0.041-2.371-0.22-3.75-0.637c-0.857-0.257-2.263-0.644-3.898-1.57
		c-2.204-1.253-2.963-2.107-4.039-3.398c-0.604-0.727-1.451-2.155-1.928-3.61c-0.479-1.453-0.967-3.257-1.086-4.281
		c-0.549-4.746-0.609-7.994-0.609-7.994l-0.066-13.821h-4.979v-8.35h4.979V0H271.662z"/>
</g>
</svg>
